<?xml version="1.0" encoding="utf-8"?>
<!-- Generator: Adobe Illustrator 25.3.1, SVG Export Plug-In . SVG Version: 6.00 Build 0)  -->
<svg version="1.1" id="Layer_1" xmlns="http://www.w3.org/2000/svg" xmlns:xlink="http://www.w3.org/1999/xlink" x="0px" y="0px"
	 viewBox="0 0 20 20" style="enable-background:new 0 0 20 20;" xml:space="preserve">
<g>
	<path d="M18.7,4c-0.1-0.1-0.3-0.2-0.5-0.2H5L4.6,1.7C4.5,1.4,4.3,1.2,4,1.2H0.7c-0.3,0-0.6,0.3-0.6,0.6s0.3,0.6,0.6,0.6h2.8L6,14.5
		C6.1,14.8,6.3,15,6.6,15h9.3c0.3,0,0.6-0.3,0.6-0.6s-0.3-0.6-0.6-0.6H7.1l-0.2-1.2l10.2-1.4c0.3,0,0.5-0.2,0.5-0.5l1.2-6.3
		C18.8,4.3,18.8,4.2,18.7,4z M16.5,10.2l-9.9,1.3L5.3,5h12.2L16.5,10.2z"/>
	<path d="M6.9,15.6c-0.7,0-1.3,0.6-1.3,1.3s0.6,1.3,1.3,1.3s1.3-0.6,1.3-1.3S7.6,15.6,6.9,15.6z"/>
	<path d="M15.9,15.6c-0.7,0-1.3,0.6-1.3,1.3s0.6,1.3,1.3,1.3s1.3-0.6,1.3-1.3S16.6,15.6,15.9,15.6z"/>
	<path d="M1.4,0.4C0.7,0.4,0.1,1,0.1,1.7S0.7,3,1.4,3s1.3-0.6,1.3-1.3S2.1,0.4,1.4,0.4z"/>
</g>
</svg>
