<?xml version="1.0" encoding="utf-8"?>
<!-- Generator: Adobe Illustrator 25.2.0, SVG Export Plug-In . SVG Version: 6.00 Build 0)  -->
<svg version="1.1" id="Layer_1" xmlns:v="https://vecta.io/nano"
	 xmlns="http://www.w3.org/2000/svg" xmlns:xlink="http://www.w3.org/1999/xlink" x="0px" y="0px" viewBox="0 0 20 20"
	 style="enable-background:new 0 0 20 20;" xml:space="preserve">
<path d="M17.3,2.7H2.6c-1.3,0-2.3,1-2.3,2.3l0,0v10c0,1.3,1,2.3,2.3,2.3l0,0h14.7c1.3,0,2.3-1,2.3-2.3l0,0V5
	C19.6,3.7,18.5,2.7,17.3,2.7z M17.3,16.4H2.6c-0.7,0-1.3-0.6-1.3-1.3l0,0V5c0-0.7,0.6-1.3,1.3-1.3l0,0h14.7c0.7,0,1.3,0.6,1.3,1.3
	l0,0v10C18.7,15.8,18,16.4,17.3,16.4z M12.6,9.9l4.7-4.2c0.3-0.2,0.3-0.5,0-0.8c-0.3-0.2-0.6-0.2-0.8,0L10,10.8L8.6,9.5L3.5,4.8
	C3.2,4.6,2.9,4.7,2.6,4.9C2.5,5.1,2.5,5.4,2.7,5.7L7.5,10l-4.8,4.4c-0.2,0.3-0.2,0.6,0,0.8c0.1,0.1,0.5,0.2,0.7,0l4.9-4.5l1.2,1.1
	C9.6,11.9,9.8,12,9.9,12c0.1,0,0.3-0.1,0.4-0.2l1.3-1.2l4.8,4.6c0.2,0.2,0.5,0.2,0.7,0c0.2-0.3,0.2-0.6,0-0.8
	C17.3,14.5,12.6,9.9,12.6,9.9z"/>
</svg>
