<?xml version="1.0" encoding="utf-8"?>
<!-- Generator: Adobe Illustrator 25.3.1, SVG Export Plug-In . SVG Version: 6.00 Build 0)  -->
<svg version="1.1" id="Layer_1" xmlns:v="https://vecta.io/nano"
	 xmlns="http://www.w3.org/2000/svg" xmlns:xlink="http://www.w3.org/1999/xlink" x="0px" y="0px" viewBox="0 0 20 20"
	 style="enable-background:new 0 0 20 20;" xml:space="preserve">
<style type="text/css">
	.st0{fill:#FFFFFF;}
</style>
<circle cx="10" cy="10" r="10"/>
<path class="st0" d="M15.1,7.9c0-0.5-0.1-0.9-0.2-1.2c-0.1-0.3-0.3-0.7-0.6-0.9c-0.3-0.3-0.6-0.5-0.9-0.6C13,5,12.7,4.9,12.1,4.9
	c-0.5,0-0.7,0-2.1,0s-1.6,0-2.1,0C7.3,4.9,7,5,6.7,5.1C6.3,5.3,6,5.5,5.7,5.7C5.5,6,5.3,6.3,5.2,6.6C5,7,4.9,7.3,4.9,7.9
	c0,0.5,0,0.7,0,2.1s0,1.6,0,2.1c0,0.5,0.1,0.9,0.2,1.2c0.1,0.3,0.3,0.7,0.6,0.9c0.3,0.3,0.6,0.5,0.9,0.6C7,15,7.3,15.1,7.9,15.1
	c0.5,0,0.7,0,2.1,0s1.6,0,2.1,0c0.5,0,0.9-0.1,1.2-0.2c0.7-0.3,1.2-0.8,1.5-1.5c0.1-0.3,0.2-0.7,0.2-1.2c0-0.5,0-0.7,0-2.1
	S15.1,8.4,15.1,7.9z M14.2,12.1c0,0.5-0.1,0.8-0.2,0.9c-0.2,0.4-0.5,0.8-1,1c-0.2,0.1-0.5,0.2-0.9,0.2c-0.5,0-0.7,0-2.1,0
	s-1.5,0-2.1,0c-0.5,0-0.8-0.1-0.9-0.2c-0.2-0.1-0.4-0.2-0.6-0.4C6.2,13.4,6.1,13.2,6,13c-0.1-0.2-0.2-0.5-0.2-0.9c0-0.5,0-0.7,0-2.1
	s0-1.5,0-2.1C5.9,7.4,5.9,7.2,6,7c0.1-0.2,0.2-0.4,0.4-0.6C6.6,6.2,6.8,6.1,7,6c0.2-0.1,0.5-0.2,0.9-0.2c0.5,0,0.7,0,2.1,0
	c1.4,0,1.5,0,2.1,0c0.5,0,0.8,0.1,0.9,0.2c0.2,0.1,0.4,0.2,0.6,0.4C13.8,6.6,13.9,6.8,14,7c0.1,0.2,0.2,0.5,0.2,0.9
	c0,0.5,0,0.7,0,2.1S14.2,11.5,14.2,12.1z"/>
<path class="st0" d="M10,7.4c-1.5,0-2.6,1.2-2.6,2.6s1.2,2.6,2.6,2.6c1.5,0,2.6-1.2,2.6-2.6S11.5,7.4,10,7.4z M10,11.7
	c-0.9,0-1.7-0.8-1.7-1.7c0-0.9,0.8-1.7,1.7-1.7c0.9,0,1.7,0.8,1.7,1.7C11.7,10.9,10.9,11.7,10,11.7z"/>
<path class="st0" d="M13.3,7.3c0,0.3-0.3,0.6-0.6,0.6c-0.3,0-0.6-0.3-0.6-0.6c0-0.3,0.3-0.6,0.6-0.6C13.1,6.7,13.3,6.9,13.3,7.3z"/>
</svg>
