<?xml version="1.0" encoding="utf-8"?>
<!-- Generator: Adobe Illustrator 25.3.1, SVG Export Plug-In . SVG Version: 6.00 Build 0)  -->
<svg version="1.1" id="Layer_1" xmlns:v="https://vecta.io/nano"
	 xmlns="http://www.w3.org/2000/svg" xmlns:xlink="http://www.w3.org/1999/xlink" x="0px" y="0px" viewBox="0 0 20 20"
	 style="enable-background:new 0 0 20 20;" xml:space="preserve">
<style type="text/css">
	.st0{fill:#FFFFFF;}
</style>
<path class="st0" d="M19.3,5.3c-0.2-0.8-0.9-1.5-1.7-1.7C16.1,3.2,10,3.2,10,3.2s-6.1,0-7.6,0.4C1.6,3.8,0.9,4.5,0.7,5.3
	C0.3,6.8,0.3,10,0.3,10s0,3.2,0.4,4.7c0.2,0.8,0.9,1.5,1.7,1.7c1.5,0.4,7.6,0.4,7.6,0.4s6.1,0,7.6-0.4c0.8-0.2,1.5-0.9,1.7-1.7
	c0.4-1.5,0.4-4.7,0.4-4.7S19.8,6.8,19.3,5.3z M8.1,12.9V7.1l5.1,2.9L8.1,12.9z"/>
</svg>
