<?xml version="1.0" encoding="utf-8"?>
<!-- Generator: Adobe Illustrator 25.3.1, SVG Export Plug-In . SVG Version: 6.00 Build 0)  -->
<svg version="1.1" id="Layer_1" xmlns:v="https://vecta.io/nano"
	 xmlns="http://www.w3.org/2000/svg" xmlns:xlink="http://www.w3.org/1999/xlink" x="0px" y="0px" viewBox="0 0 20 20"
	 style="enable-background:new 0 0 20 20;" xml:space="preserve">
<style type="text/css">
	.st0{fill:#FFFFFF;}
</style>
<circle cx="10" cy="10" r="10"/>
<path class="st0" d="M14.4,7.8C14.3,7.4,14,7.1,13.6,7C12.9,6.8,10,6.8,10,6.8S7.1,6.8,6.4,7C6.1,7.1,5.7,7.4,5.6,7.8
	C5.4,8.5,5.4,10,5.4,10s0,1.5,0.2,2.2C5.7,12.6,6,12.9,6.4,13c0.7,0.2,3.6,0.2,3.6,0.2s2.9,0,3.6-0.2c0.4-0.1,0.7-0.4,0.8-0.8
	c0.2-0.7,0.2-2.2,0.2-2.2S14.6,8.5,14.4,7.8z M9.1,11.4V8.6l2.4,1.4L9.1,11.4z"/>
</svg>
